<svg xmlns="http://www.w3.org/2000/svg" xmlns:xlink="http://www.w3.org/1999/xlink" viewBox="0 0 292.84 84.15"><defs><style>.cls-1{fill:#020608;}.cls-2{fill:#66975c;}.cls-3,.cls-4,.cls-5{fill-rule:evenodd;}.cls-3{fill:url(#GradientFill_4);}.cls-4{fill:url(#GradientFill_4-2);}.cls-5{fill:url(#GradientFill_3);}.cls-6{fill:#1f1f1d;}</style><linearGradient id="GradientFill_4" x1="148.82" y1="52.28" x2="149.99" y2="73.34" gradientUnits="userSpaceOnUse"><stop offset="0" stop-color="#868793"/><stop offset="1" stop-color="#0d0e10"/></linearGradient><linearGradient id="GradientFill_4-2" x1="130.34" y1="39.88" x2="126.42" y2="66.06" xlink:href="#GradientFill_4"/><linearGradient id="GradientFill_3" x1="148.57" y1="75.31" x2="132.9" y2="5.15" gradientUnits="userSpaceOnUse"><stop offset="0" stop-color="#404464"/><stop offset="1" stop-color="#4896c5"/></linearGradient></defs><g id="Layer_2"><g id="Layer_1-2"><path class="cls-1" d="M2.09,53.66,8.75,47H11.3L5.59,52.55l5.87,8.19H9.05L4.24,53.85,2.09,55.92v4.82H.23V47H2.09Z"/><path class="cls-1" d="M22.23,47H24V60.74H22L15,49.65h0V60.74H13.13V47h2.19l6.87,11.09h0Z"/><path class="cls-1" d="M32.91,53.4h6v7.34H37.74L37.28,59a5.6,5.6,0,0,1-4.52,2.14c-4.81,0-6.36-4.05-6.36-7.34s2-7.12,6.49-7.12c2.56,0,5.41,1.46,5.81,4.55H36.9c-.58-2.41-2.59-2.9-4.1-2.9-2.46,0-4.49,2-4.49,5.56,0,2.79.91,5.66,4.56,5.66a4.33,4.33,0,0,0,2.82-.89A4.2,4.2,0,0,0,37.19,55H32.91Z"/><path class="cls-1" d="M43.7,53.66,50.37,47h2.55l-5.71,5.55,5.86,8.19h-2.4l-4.81-6.89L43.7,55.92v4.82H41.85V47H43.7Z"/><path class="cls-1" d="M58.87,56.6H54.19V55.22h4.68Z"/><path class="cls-2" d="M63.09,60.74H61.24V47h1.85Z"/><path class="cls-2" d="M75.12,47h1.79V60.74H74.83l-7-11.09h0V60.74H66V47h2.2l6.87,11.09h0Z"/><path class="cls-2" d="M81.69,60.74H79.83V47H86a3.75,3.75,0,0,1,4.07,3.86A3.84,3.84,0,0,1,86,55H81.69Zm0-7.38h3.69c1.67,0,2.8-.62,2.8-2.48S87,48.59,85.46,48.59H81.69Z"/><path class="cls-2" d="M102.31,47v1.61L93.84,59.1h8.47v1.64H91.5V59.19l8.42-10.54H92.14V47Z"/><path class="cls-1" d="M179,53.66,185.7,47h2.55l-5.71,5.55,5.86,8.19H186l-4.8-6.89L179,55.92v4.82h-1.85V47H179Z"/><path class="cls-1" d="M192.76,52.68h7.17V47h1.85V60.74h-1.85V54.33h-7.17v6.41h-1.85V47h1.85Z"/><path class="cls-1" d="M214.52,47v1.65h-7.13V60.74h-1.85V47Z"/><path class="cls-1" d="M218.9,53.66,225.56,47h2.55l-5.71,5.55,5.86,8.19h-2.4l-4.8-6.89-2.16,2.07v4.82h-1.85V47h1.85Z"/><path class="cls-1" d="M234.89,56.6h-4.67V55.22h4.67Z"/><path class="cls-2" d="M240,58.25H240L247,47h2.12V60.74h-1.86V49.65h0l-7,11.09H238.1V47H240Z"/><path class="cls-2" d="M254.72,52.68h7.16V47h1.85V60.74h-1.85V54.33h-7.16v6.41h-1.85V47h1.85Z"/><path class="cls-2" d="M278.36,47V60.74h-1.85V48.65h-7.16V60.74h-1.86V47Z"/><path class="cls-2" d="M287.17,59.46c1.46,0,3.61-.5,3.61-2.46s-1.59-2.69-3.46-2.69h-1.44V52.79h1c1.57,0,3.29-.68,3.29-2.13,0-2.09-1.94-2.37-3.17-2.37-1.61,0-3.5.6-3.5,2.78H281.8c0-1.51,1-4.43,5.45-4.43,2.83,0,4.87,1.5,4.87,3.81a3.1,3.1,0,0,1-2.42,3,3.55,3.55,0,0,1,3,3.61c0,3.09-2.91,4.07-5.48,4.07-5,0-5.65-2.38-5.65-4.8h1.74C283.3,58.79,284.94,59.46,287.17,59.46Z"/><path class="cls-3" d="M158.55,57.83a13.09,13.09,0,0,1-8.29,5.41c-2,.49-6.62,1.1-9.74,3.19a9.34,9.34,0,0,0-4.33,9.35,8.92,8.92,0,0,0,7.69,7.43c3,.38,6.68-.58,10.7-3.69a22.09,22.09,0,0,0,6.26-7.4,22.65,22.65,0,0,0,2.46-10.49A28.1,28.1,0,0,0,161,50.92,14.76,14.76,0,0,1,158.55,57.83Z"/><path class="cls-4" d="M134.77,84.15a82.58,82.58,0,0,1-4.3-8.05,14.59,14.59,0,0,1-1.28-8.18,18.75,18.75,0,0,1,3.74-8.07c4.48-6.08.66-9.51-.13-10.5-.4-.5-2.2-2.31-3.82-4.43a27.49,27.49,0,0,1-3.5-5.87A74.9,74.9,0,0,0,119.85,48a27.07,27.07,0,0,0-3.4,13.69,23.59,23.59,0,0,0,1.7,8.5,24.66,24.66,0,0,0,7.73,9.74A30.93,30.93,0,0,0,134.77,84.15Z"/><path class="cls-5" d="M151.93,44.64c-1.3,3.94-3.72,6.89-7.64,10.18-2.59,2.18-5.7,4-8.6,6.22-4.3,3.35-5.06,7.08-4.4,10.86.74,4.19,4,8.73,4,8.73s-.71-3-.9-4.45a13.83,13.83,0,0,1,.16-5.15c1-3.92,4.47-7.31,12.1-9,3.86-.84,7.16-1.72,9.69-4.78a10.71,10.71,0,0,0,2.57-7c0-6.83-6.33-13.86-6.33-13.86a15.12,15.12,0,0,1-.64,8.19ZM143.44,8.57h0a17,17,0,0,0,2-8.57,20,20,0,0,1,1,5.93,17.09,17.09,0,0,1-.46,4.81,15.33,15.33,0,0,1-4,7.17,16.44,16.44,0,0,0-3.56,6.33,15.23,15.23,0,0,0,.29,8.24,27.1,27.1,0,0,0,1.14,3.06c.44,1.06,1.3,2.72,1.3,2.72a68.07,68.07,0,0,1-5.72-6.92,11.31,11.31,0,0,1-1.66-7c.3-2.94,1.84-6.28,5.35-10.15a24.14,24.14,0,0,0,4.34-5.66Zm-15.83,17.2h0a18.57,18.57,0,0,1,6.33-7.88c-5.11,7.23-2.21,12.36,1.6,16.6,2.66,2.95,5.55,5.25,6.69,7.73s.42,5.56-1,8.39a42.7,42.7,0,0,1-6.2,8.56,9.42,9.42,0,0,0,2.13-6.29,9.2,9.2,0,0,0-2.48-5c-1.3-1.52-2.66-3.07-3.76-4.53a22.67,22.67,0,0,1-3.49-6.71,15.39,15.39,0,0,1,.22-10.86Zm17.44-7.95h0a18.65,18.65,0,0,1,6.6-2.68,10.05,10.05,0,0,0-4.42,9.21c.12,2.85,1.08,6.4,3.07,11,5,11.45-12.22,22.29-12.22,22.29a25.34,25.34,0,0,0,4.76-6.5,15.76,15.76,0,0,0,1.6-7,15.63,15.63,0,0,0-1.77-6.1,43.79,43.79,0,0,1-2.72-7.4,14.43,14.43,0,0,1,0-5.32A11.54,11.54,0,0,1,145.05,17.82Z"/><path class="cls-6" d="M177.78,69.39h2V67.7h.7v4.19h-.7V70h-2v1.92h-.7V67.7h.7Z"/><path class="cls-6" d="M184.9,70.57A1.76,1.76,0,0,1,183,72a1.87,1.87,0,0,1-1.86-2.1c0-1.31.61-2.33,2-2.33,1.2,0,1.79,1,1.79,2.45h-3c0,.86.4,1.37,1.21,1.37a1,1,0,0,0,1.07-.83Zm-.67-1.1c0-.65-.31-1.25-1.18-1.25a1.22,1.22,0,0,0-1.14,1.25Z"/><path class="cls-6" d="M188.8,73.54h-.68V71.4A1.24,1.24,0,0,1,187,72c-1.11,0-1.56-1-1.56-2.27s.59-2.16,1.52-2.16a1.33,1.33,0,0,1,1.13.6v-2h.68v2a1.28,1.28,0,0,1,1.1-.61c.94,0,1.55,1,1.55,2.15S191,72,189.86,72a1.16,1.16,0,0,1-1.05-.57h0Zm-1.65-2.14c.38,0,1-.25,1-1.45,0-.94-.24-1.76-1-1.76s-1,.79-1,1.62C186.19,70.87,186.49,71.4,187.15,71.4Zm2.58-3.21c-.74,0-.93.79-.93,1.74,0,1.2.54,1.47.93,1.47.65,0,1-.53,1-1.59C190.73,69,190.39,68.19,189.73,68.19Z"/><path class="cls-6" d="M195.15,67.7v.59h-1.37v3.6h-.71v-3.6H191.7V67.7Z"/><path class="cls-6" d="M199.2,70.57A1.75,1.75,0,0,1,197.32,72a1.88,1.88,0,0,1-1.86-2.1c0-1.31.62-2.33,2-2.33,1.2,0,1.8,1,1.8,2.45h-3c0,.86.4,1.37,1.21,1.37a1.05,1.05,0,0,0,1.08-.83Zm-.66-1.1c0-.65-.32-1.25-1.18-1.25a1.23,1.23,0,0,0-1.15,1.25Z"/><path class="cls-6" d="M203.34,67.7v4.19h-.71v-3.6h-1.95v3.6H200V67.7Z"/><path class="cls-6" d="M207.8,70.57A1.76,1.76,0,0,1,205.91,72a1.88,1.88,0,0,1-1.86-2.1c0-1.31.62-2.33,2-2.33,1.21,0,1.8,1,1.8,2.45h-3c0,.86.41,1.37,1.22,1.37a1,1,0,0,0,1.07-.83Zm-.67-1.1c0-.65-.32-1.25-1.18-1.25a1.23,1.23,0,0,0-1.15,1.25Z"/><path class="cls-6" d="M208.57,67.7h.65v.6a1.39,1.39,0,0,1,1.27-.72c1.11,0,1.73.91,1.73,2.09,0,1-.39,2.34-1.82,2.34a1.25,1.25,0,0,1-1.13-.61v2.14h-.7Zm.7,2.08c0,.91.36,1.62,1.13,1.62.44,0,1.1-.3,1.1-1.42,0-.69-.07-1.76-1.08-1.76S209.27,69.24,209.27,69.78Z"/><path class="cls-6" d="M216.45,70.57A1.75,1.75,0,0,1,214.57,72a1.88,1.88,0,0,1-1.86-2.1c0-1.31.62-2.33,2-2.33,1.2,0,1.8,1,1.8,2.45h-3c0,.86.41,1.37,1.21,1.37a1.05,1.05,0,0,0,1.08-.83Zm-.66-1.1c0-.65-.32-1.25-1.18-1.25a1.23,1.23,0,0,0-1.15,1.25Z"/><path class="cls-6" d="M217.23,67.7h.65v.6a1.39,1.39,0,0,1,1.27-.72c1.1,0,1.73.91,1.73,2.09,0,1-.4,2.34-1.82,2.34a1.25,1.25,0,0,1-1.13-.61v2.14h-.7Zm.7,2.08c0,.91.36,1.62,1.12,1.62.45,0,1.11-.3,1.11-1.42,0-.69-.07-1.76-1.08-1.76S217.93,69.24,217.93,69.78Z"/><path class="cls-6" d="M221.57,69c0-1,.69-1.4,1.73-1.4.33,0,1.55.1,1.55,1.17v2.39c0,.18.09.26.23.26l.23,0v.52a1.34,1.34,0,0,1-.38.08c-.63,0-.71-.33-.75-.64a1.91,1.91,0,0,1-1.51.68,1.2,1.2,0,0,1-1.3-1.21c0-.5.12-1.24,1.6-1.35,1.09-.09,1.17-.17,1.17-.61s-.3-.67-1-.67-.91.49-.95.81Zm2.57.77c-.11.09-.28.15-1.15.26-.35,0-.9.14-.9.67a.67.67,0,0,0,.77.74c.65,0,1.28-.42,1.28-1Z"/><path class="cls-6" d="M229.35,66.14c-.3.79-.75.87-1.41,1a1.72,1.72,0,0,0-1.61,1.49,1.8,1.8,0,0,1,3.28,1.27,2,2,0,0,1-2,2.16c-1.08,0-1.89-.75-1.89-2.67,0-1.47.67-2.59,2-2.78.75-.12.91-.17,1-.42Zm-.46,3.71c0-.44-.21-1.48-1.22-1.48a1.36,1.36,0,0,0-1.23,1.48c0,.66.21,1.55,1.23,1.55S228.89,70.3,228.89,69.85Z"/><path class="cls-6" d="M232.09,67.58a2.23,2.23,0,1,1-1.94,2.21A2,2,0,0,1,232.09,67.58Zm0,3.82c1,0,1.22-1.05,1.22-1.61s-.22-1.6-1.22-1.6-1.22,1-1.22,1.6S231.09,71.4,232.09,71.4Z"/><path class="cls-6" d="M237.74,67.7v.59h-1.38v3.6h-.71v-3.6h-1.37V67.7Z"/><path class="cls-6" d="M239,69.52l1.79-1.82h.9l-1.6,1.56,1.69,2.63h-.84l-1.35-2.14-.59.55v1.59h-.71V67.7H239Z"/><path class="cls-6" d="M242.19,69c0-1,.69-1.4,1.73-1.4.33,0,1.55.1,1.55,1.17v2.39c0,.18.09.26.23.26l.23,0v.52a1.34,1.34,0,0,1-.38.08c-.63,0-.71-.33-.75-.64a1.91,1.91,0,0,1-1.51.68A1.2,1.2,0,0,1,242,70.8c0-.5.12-1.24,1.6-1.35,1.1-.09,1.17-.17,1.17-.61s-.3-.67-1-.67-.91.49-.95.81Zm2.57.77c-.11.09-.28.15-1.15.26-.35,0-.9.14-.9.67a.67.67,0,0,0,.77.74c.65,0,1.28-.42,1.28-1Z"/><path class="cls-6" d="M249.41,69.39h2V67.7h.7v4.19h-.7V70h-2v1.92h-.7V67.7h.7Z"/><path class="cls-6" d="M256.53,70.57A1.75,1.75,0,0,1,254.65,72a1.88,1.88,0,0,1-1.86-2.1c0-1.31.61-2.33,2-2.33,1.2,0,1.79,1,1.79,2.45h-3c0,.86.4,1.37,1.21,1.37a1.05,1.05,0,0,0,1.08-.83Zm-.67-1.1c0-.65-.31-1.25-1.17-1.25a1.23,1.23,0,0,0-1.15,1.25Z"/><path class="cls-6" d="M260.43,73.54h-.68V71.4a1.24,1.24,0,0,1-1.09.61c-1.11,0-1.56-1-1.56-2.27s.59-2.16,1.52-2.16a1.33,1.33,0,0,1,1.13.6v-2h.68v2a1.28,1.28,0,0,1,1.1-.61c.94,0,1.55,1,1.55,2.15S262.61,72,261.49,72a1.16,1.16,0,0,1-1.05-.57h0Zm-1.65-2.14c.38,0,1-.25,1-1.45,0-.94-.24-1.76-1-1.76s-1,.79-1,1.62C257.82,70.87,258.13,71.4,258.78,71.4Zm2.58-3.21c-.74,0-.93.79-.93,1.74,0,1.2.54,1.47.93,1.47.65,0,1-.53,1-1.59C262.36,69,262,68.19,261.36,68.19Z"/><path class="cls-6" d="M266.78,67.7v.59h-1.37v3.6h-.71v-3.6h-1.37V67.7Z"/><path class="cls-6" d="M270.83,70.57A1.75,1.75,0,0,1,269,72a1.88,1.88,0,0,1-1.86-2.1c0-1.31.62-2.33,2-2.33,1.2,0,1.8,1,1.8,2.45h-3.05c0,.86.4,1.37,1.21,1.37a1.05,1.05,0,0,0,1.08-.83Zm-.66-1.1c0-.65-.32-1.25-1.18-1.25a1.23,1.23,0,0,0-1.15,1.25Z"/><path class="cls-6" d="M274.82,71.89h-.89l-1-1.58-1,1.58H271l1.47-2.15-1.39-2h.9l1,1.47,1-1.47h.86l-1.41,2Z"/><path class="cls-6" d="M276,70.83h0l2.05-3.13h.73v4.19h-.7V68.75h0l-2.05,3.14h-.73V67.7h.7Z"/><path class="cls-6" d="M280.78,67.7,282.07,71l1.29-3.29h1v4.19h-.69V69.46c0-.44,0-.9,0-.9h-.06l-1.31,3.33h-.5l-1.32-3.33h-.05s0,.46,0,.9v2.43h-.69V67.7Z"/><path class="cls-6" d="M286,70.83h0l2-3.13h.74v4.19h-.7V68.75h0L286,71.89h-.73V67.7h.7Z"/><path class="cls-6" d="M292.84,71.89h-.71V70.12h-.89l-1,1.77h-.8l1-1.79a1.21,1.21,0,0,1-.94-1.18c0-.79.57-1.22,1.51-1.22h1.78Zm-.71-3.6H291c-.51,0-.78.22-.78.64s.27.64.78.64h1.1Z"/><path class="cls-6" d="M1.94,67.58a2.23,2.23,0,0,1,0,4.43,2.23,2.23,0,0,1,0-4.43Zm0,3.82c1,0,1.22-1.05,1.22-1.61s-.22-1.6-1.22-1.6-1.22,1-1.22,1.6S.93,71.4,1.94,71.4Z"/><path class="cls-6" d="M5,66.94v-.8h.7v.8Zm.7,5H5V67.7h.7Z"/><path class="cls-6" d="M7.77,71.89h-.7V66.14h.7Z"/><path class="cls-6" d="M12.33,67.7v.7h0a1.38,1.38,0,0,1,1.18-.82.5.5,0,0,1,.19,0v.73h-.28a1.06,1.06,0,0,0-1.06,1.12v2.43h-.7V67.7Z"/><path class="cls-6" d="M18.16,70.57A1.76,1.76,0,0,1,16.27,72a1.88,1.88,0,0,1-1.86-2.1c0-1.31.62-2.33,2-2.33,1.2,0,1.79,1,1.79,2.45h-3c0,.86.4,1.37,1.21,1.37a1,1,0,0,0,1.07-.83Zm-.67-1.1c0-.65-.32-1.25-1.18-1.25a1.22,1.22,0,0,0-1.14,1.25Z"/><path class="cls-6" d="M20.91,66.71h-.27c-.3,0-.42.15-.42.49v.51h.7v.59h-.7v3.6h-.71v-3.6h-.57V67.7h.57V67c0-.65.4-.92,1.09-.92a1.48,1.48,0,0,1,.31,0Z"/><path class="cls-6" d="M21.89,66.94v-.8h.71v.8Zm.71,5h-.71V67.7h.71Z"/><path class="cls-6" d="M24.61,67.7v.6h0a1.49,1.49,0,0,1,1.25-.72A1.33,1.33,0,0,1,27.36,69v2.85h-.71V69.31c0-.72-.2-1.09-.89-1.09-.4,0-1.1.25-1.1,1.39v2.28H24V67.7Z"/><path class="cls-6" d="M28.72,66.94v-.8h.7v.8Zm.7,5h-.7V67.7h.7Z"/><path class="cls-6" d="M31.44,67.7v.6h0a1.5,1.5,0,0,1,1.26-.72A1.32,1.32,0,0,1,34.18,69v2.85h-.7V69.31c0-.72-.21-1.09-.9-1.09-.39,0-1.1.25-1.1,1.39v2.28h-.7V67.7Z"/><path class="cls-6" d="M39,67.7v3.84A1.79,1.79,0,0,1,37,73.64a1.42,1.42,0,0,1-1.59-1.25h.7a.93.93,0,0,0,.94.67c1.16,0,1.19-.91,1.19-1.65a1.26,1.26,0,0,1-1.13.6c-1.42,0-1.82-1.34-1.82-2.34,0-1.19.63-2.09,1.74-2.09a1.42,1.42,0,0,1,1.26.72v-.6ZM36,69.78c0,.91.36,1.62,1.12,1.62.45,0,1.11-.3,1.11-1.42,0-.69-.07-1.76-1.08-1.76S36,69.24,36,69.78Z"/><path class="cls-6" d="M45.41,67.7h.66v.6a1.39,1.39,0,0,1,1.27-.72c1.1,0,1.73.91,1.73,2.09,0,1-.4,2.34-1.82,2.34a1.25,1.25,0,0,1-1.13-.61v2.14h-.71Zm.71,2.08c0,.91.35,1.62,1.12,1.62.44,0,1.11-.3,1.11-1.42,0-.69-.07-1.76-1.08-1.76S46.12,69.24,46.12,69.78Z"/><path class="cls-6" d="M53.71,70.57A1.75,1.75,0,0,1,51.83,72,1.88,1.88,0,0,1,50,69.91c0-1.31.62-2.33,2-2.33,1.2,0,1.8,1,1.8,2.45H50.72c0,.86.4,1.37,1.21,1.37A1.05,1.05,0,0,0,53,70.57Zm-.66-1.1c0-.65-.32-1.25-1.18-1.25a1.23,1.23,0,0,0-1.15,1.25Z"/><path class="cls-6" d="M55.76,66.55v1.16h.68v.59h-.68V71c0,.31.28.33.42.33h.25v.55a3.7,3.7,0,0,1-.52.06c-.7,0-.85-.4-.85-.9V68.3H54.5v-.59h.56V66.55Z"/><path class="cls-6" d="M58.1,67.7v.7h0a1.38,1.38,0,0,1,1.18-.82.5.5,0,0,1,.19,0v.73h-.28a1.06,1.06,0,0,0-1.06,1.12v2.43h-.7V67.7Z"/><path class="cls-6" d="M62.12,67.58a2.23,2.23,0,1,1-1.94,2.21A2,2,0,0,1,62.12,67.58Zm0,3.82c1,0,1.22-1.05,1.22-1.61s-.21-1.6-1.22-1.6-1.22,1-1.22,1.6S61.12,71.4,62.12,71.4Z"/><path class="cls-6" d="M67.85,69.11a.93.93,0,0,0-1-.89c-.87,0-1.15.83-1.15,1.57s.17,1.61,1.14,1.61a1.06,1.06,0,0,0,1-1h.68a1.65,1.65,0,0,1-1.7,1.6A1.88,1.88,0,0,1,65,69.91c0-1.29.62-2.33,2-2.33a1.51,1.51,0,0,1,1.57,1.53Z"/><path class="cls-6" d="M70.26,68.26h0a1.48,1.48,0,0,1,1.22-.68A1.32,1.32,0,0,1,73,69v2.85h-.7V69.15c0-.57-.16-.93-.83-.93s-1.16.33-1.16,1.39v2.28h-.71V66.14h.71Z"/><path class="cls-6" d="M77.82,70.57A1.74,1.74,0,0,1,75.94,72a1.88,1.88,0,0,1-1.86-2.1c0-1.31.62-2.33,2-2.33,1.21,0,1.8,1,1.8,2.45h-3c0,.86.41,1.37,1.22,1.37a1,1,0,0,0,1.07-.83Zm-.66-1.1c0-.65-.32-1.25-1.18-1.25a1.23,1.23,0,0,0-1.15,1.25Z"/><path class="cls-6" d="M79.67,67.7v.6h0A1.47,1.47,0,0,1,81,67.58a1.12,1.12,0,0,1,1.1.68,1.59,1.59,0,0,1,1.28-.68A1.27,1.27,0,0,1,84.63,69v2.9h-.7V69.18c0-.57-.18-1-.78-1a1.05,1.05,0,0,0-1,1.11v2.56h-.7V69c0-.35-.14-.77-.67-.77s-1.09.23-1.09,1.37v2.3H79V67.7Z"/><path class="cls-6" d="M86,66.94v-.8h.7v.8Zm.7,5H86V67.7h.7Z"/><path class="cls-6" d="M90.71,69.11a.92.92,0,0,0-1-.89c-.87,0-1.14.83-1.14,1.57s.17,1.61,1.14,1.61c.47,0,.87-.35,1-1h.68a1.65,1.65,0,0,1-1.7,1.6,1.88,1.88,0,0,1-1.87-2.1c0-1.29.63-2.33,2-2.33a1.5,1.5,0,0,1,1.56,1.53Z"/><path class="cls-6" d="M92.39,69c0-1,.69-1.4,1.73-1.4.33,0,1.55.1,1.55,1.17v2.39c0,.18.09.26.23.26l.23,0v.52a1.34,1.34,0,0,1-.38.08c-.63,0-.71-.33-.75-.64a1.91,1.91,0,0,1-1.51.68,1.2,1.2,0,0,1-1.3-1.21c0-.5.13-1.24,1.6-1.35,1.1-.09,1.18-.17,1.18-.61s-.31-.67-1-.67-.91.49-.95.81Zm2.58.77c-.12.09-.29.15-1.16.26-.35,0-.9.14-.9.67a.67.67,0,0,0,.77.74c.65,0,1.29-.42,1.29-1Z"/><path class="cls-6" d="M97.89,71.89h-.7V66.14h.7Z"/><path class="cls-6" d="M101.62,68.9c0-.26-.09-.71-1-.71-.21,0-.83.07-.83.6,0,.34.22.43,1.12.65,1.23.29,1.52.61,1.52,1.18,0,.86-.71,1.39-1.66,1.39-1.66,0-1.76-1-1.79-1.47h.68c0,.31.11.86,1.11.86.49,0,1-.19,1-.67s-.24-.5-1.25-.7-1.36-.46-1.36-1.11a1.4,1.4,0,0,1,1.58-1.34c1.5,0,1.59,1.11,1.6,1.32Z"/></g></g></svg>
