<?xml version="1.0" standalone="no"?>
<!DOCTYPE svg PUBLIC "-//W3C//DTD SVG 20010904//EN"
 "http://www.w3.org/TR/2001/REC-SVG-20010904/DTD/svg10.dtd">
<svg version="1.0" xmlns="http://www.w3.org/2000/svg"
 width="400.000000pt" height="400.000000pt" viewBox="0 0 400.000000 400.000000"
 preserveAspectRatio="xMidYMid meet">
<metadata>
Created by potrace 1.11, written by Peter Selinger 2001-2013
</metadata>
<g transform="translate(0.000000,400.000000) scale(0.100000,-0.100000)"
fill="#000000" stroke="none">
<path d="M1956 3392 c-21 -37 -74 -130 -118 -207 -44 -77 -93 -160 -108 -185
-15 -25 -40 -67 -55 -95 -31 -57 -140 -245 -262 -452 -46 -78 -83 -146 -83
-151 0 -31 -31 -34 -379 -33 -260 0 -350 -3 -353 -12 -3 -7 -4 -34 -4 -62 l1
-50 314 -2 c172 -1 315 -3 317 -5 3 -4 -108 -201 -192 -343 -17 -27 -33 -57
-36 -65 -3 -8 -41 -75 -84 -147 -71 -119 -142 -242 -199 -342 -27 -48 -135
-235 -159 -274 -10 -18 -31 -54 -46 -82 -25 -45 -105 -184 -151 -261 l-18 -31
1657 1 c1099 1 1656 4 1655 11 -1 6 -37 69 -78 140 -42 72 -101 173 -132 225
-30 52 -67 115 -81 140 -23 42 -128 224 -285 495 -38 66 -101 174 -139 240
-39 66 -84 145 -100 175 -17 30 -39 70 -50 88 l-20 32 129 1 c70 0 214 0 319
0 l191 -1 -1 63 -1 62 -355 2 c-285 1 -356 4 -363 15 -107 181 -174 296 -179
308 -3 8 -43 79 -89 157 -122 207 -209 356 -254 437 -67 121 -160 275 -165
275 -3 0 -22 -30 -44 -67z m115 -297 c29 -49 69 -119 89 -155 36 -64 127 -220
262 -451 37 -64 71 -125 75 -135 3 -10 9 -21 13 -24 3 -3 13 -17 23 -32 l17
-28 -82 0 c-378 -2 -1002 1 -1006 4 -2 3 36 74 85 158 50 84 102 175 118 203
33 60 152 266 246 426 38 64 72 124 75 134 9 23 21 9 85 -100z m514 -955 c39
0 42 -2 72 -57 17 -32 63 -114 103 -183 40 -69 113 -195 163 -280 49 -85 113
-195 142 -245 29 -49 68 -117 86 -150 18 -33 66 -115 106 -183 40 -67 73 -125
73 -127 0 -3 18 -34 40 -70 22 -36 40 -70 40 -75 0 -6 4 -10 9 -10 5 0 11 -9
14 -20 4 -14 0 -20 -11 -20 -109 -4 -2853 -2 -2856 1 -3 2 16 38 41 79 25 41
58 100 74 130 16 30 54 96 84 145 30 50 62 106 72 125 9 19 40 73 68 120 28
47 65 110 82 140 55 99 105 185 113 195 4 6 23 37 40 70 18 33 70 123 115 200
46 77 91 157 101 177 l17 37 81 3 c62 2 826 1 1131 -2z"/>
</g>
</svg>
